<svg id="Layer_1" data-name="Layer 1" xmlns="http://www.w3.org/2000/svg" viewBox="0 0 526.58 503.25"><defs><style>.cls-1{fill:#b4007f;}.cls-1,.cls-2,.cls-3{stroke:#000;stroke-miterlimit:10;}.cls-2{fill:#662d91;}.cls-3{fill:#ba9bc9;}</style></defs><ellipse class="cls-1" cx="262.33" cy="252.23" rx="177.53" ry="166.85"/><ellipse class="cls-2" cx="247.16" cy="193.19" rx="45.51" ry="47.76"/><circle class="cls-2" cx="292.67" cy="316.23" r="33.67"/><circle class="cls-2" cx="353.62" cy="220.44" r="27.25"/><rect class="cls-2" x="527.96" y="313.27" width="87.64" height="28.09" transform="translate(253.45 -545.96) rotate(43.72)"/><rect class="cls-2" x="528.03" y="331.47" width="33" height="56.18" transform="translate(268.19 -518.19) rotate(43.72)"/><rect class="cls-2" x="211.36" y="0.5" width="87.64" height="28.09"/><rect class="cls-2" x="241.28" y="28.59" width="33" height="56.18"/><rect class="cls-2" x="161.63" y="327.32" width="87.64" height="28.09" transform="translate(-311.05 -2.08) rotate(-44.14)"/><rect class="cls-2" x="220.16" y="341.7" width="33" height="56.18" transform="translate(-322.04 27.68) rotate(-44.14)"/><rect class="cls-2" x="596.91" y="489.51" width="87.64" height="28.09" transform="translate(1050.59 -347.25) rotate(93.45)"/><rect class="cls-2" x="582.02" y="475.53" width="33" height="56.18" transform="translate(1005.9 -305.04) rotate(93.45)"/><rect class="cls-2" x="185.3" y="656.64" width="87.64" height="28.09" transform="translate(-156.81 1090.58) rotate(-140.09)"/><rect class="cls-2" x="237.66" y="608.6" width="33" height="56.18" transform="translate(-90.76 1046.59) rotate(-140.09)"/><rect class="cls-2" x="218.51" y="474.66" width="87.64" height="28.09"/><rect class="cls-2" x="248.43" y="418.48" width="33" height="56.18"/><rect class="cls-2" x="516.52" y="654.99" width="87.64" height="28.09" transform="translate(-436.82 318.23) rotate(-42.86)"/><rect class="cls-2" x="517.08" y="608.29" width="33" height="56.18" transform="translate(-421.75 291.32) rotate(-42.86)"/><rect class="cls-2" x="102.09" y="485.96" width="87.64" height="28.09" transform="translate(-485.34 404.68) rotate(-90.03)"/><rect class="cls-2" x="171.55" y="469.28" width="33" height="56.18" transform="translate(-440.56 444.18) rotate(-90.03)"/><rect class="cls-3" x="448.02" y="315.07" width="57.72" height="15.12" transform="translate(57.74 -417.58) rotate(25.93)"/><rect class="cls-3" x="457.63" y="328.66" width="21.73" height="30.25" transform="translate(66.15 -411.78) rotate(25.93)"/><rect class="cls-3" x="273.27" y="322.05" width="57.72" height="15.12" transform="translate(-252.43 -56.2) rotate(-28.67)"/><rect class="cls-3" x="303.65" y="333.58" width="21.73" height="30.25" transform="translate(-260.06 -47.92) rotate(-28.67)"/><rect class="cls-3" x="539.18" y="565.82" width="57.72" height="15.12" transform="translate(1232.38 196.48) rotate(125.08)"/><rect class="cls-3" x="537.62" y="546.63" width="21.73" height="30.25" transform="translate(1192.07 194.16) rotate(125.08)"/><rect class="cls-3" x="548.42" y="423.51" width="57.72" height="15.12" transform="translate(578.96 -518.54) rotate(63.89)"/><rect class="cls-3" x="546.8" y="427.47" width="21.73" height="30.25" transform="translate(578.33 -494.48) rotate(63.89)"/><rect class="cls-3" x="174.22" y="427.27" width="57.72" height="15.12" transform="translate(-407.33 164.8) rotate(-61.56)"/><rect class="cls-3" x="212.98" y="429" width="21.73" height="30.25" transform="translate(-404.63 187.93) rotate(-61.56)"/><rect class="cls-3" x="296.87" y="656.95" width="57.72" height="15.12" transform="translate(176.9 -316.87) rotate(24.76)"/><rect class="cls-3" x="325.92" y="629.51" width="21.73" height="30.25" transform="translate(169.59 -323.32) rotate(24.76)"/><rect class="cls-3" x="188.98" y="553.26" width="57.72" height="15.12" transform="translate(443.61 -164.91) rotate(57.64)"/><rect class="cls-3" x="227.05" y="535.01" width="21.73" height="30.25" transform="translate(443.9 -186.84) rotate(57.64)"/><rect class="cls-3" x="446.91" y="661.79" width="57.72" height="15.12" transform="translate(-411.76 107.54) rotate(-31.64)"/><rect class="cls-3" x="454.46" y="634.02" width="21.73" height="30.25" transform="translate(-402.7 99.06) rotate(-31.64)"/></svg>